<svg width="26" height="26" viewBox="0 0 26 26" fill="none" xmlns="http://www.w3.org/2000/svg">
<path d="M13 25C19.6274 25 25 19.6274 25 13C25 6.37258 19.6274 1 13 1C6.37258 1 1 6.37258 1 13C1 19.6274 6.37258 25 13 25Z" stroke="#EFF1F3" stroke-width="1.5" stroke-linecap="round" stroke-linejoin="round"/>
<path d="M9.50781 9.40012C9.78994 8.59812 10.3468 7.92185 11.0798 7.49108C11.8127 7.06031 12.6745 6.90285 13.5124 7.04658C14.3504 7.1903 15.1104 7.62595 15.6579 8.27636C16.2054 8.92676 16.5051 9.74995 16.5038 10.6001C16.5038 13.0001 12.9038 14.2001 12.9038 14.2001" stroke="#EFF1F3" stroke-width="1.5" stroke-linecap="round" stroke-linejoin="round"/>
<path d="M13 19H13.012" stroke="#EFF1F3" stroke-width="1.5" stroke-linecap="round" stroke-linejoin="round"/>
</svg>
