<svg width="16" height="16" viewBox="0 0 16 16" fill="none" xmlns="http://www.w3.org/2000/svg">
<path d="M8 15C8.91925 15 9.82951 14.8189 10.6788 14.4672C11.5281 14.1154 12.2997 13.5998 12.9497 12.9497C13.5998 12.2997 14.1154 11.5281 14.4672 10.6788C14.8189 9.82951 15 8.91925 15 8C15 7.08075 14.8189 6.1705 14.4672 5.32122C14.1154 4.47194 13.5998 3.70026 12.9497 3.05025C12.2997 2.40024 11.5281 1.88463 10.6788 1.53284C9.82951 1.18106 8.91925 1 8 1M8 15C7.08075 15 6.1705 14.8189 5.32122 14.4672C4.47194 14.1154 3.70026 13.5998 3.05025 12.9497C2.40024 12.2997 1.88463 11.5281 1.53284 10.6788C1.18106 9.82951 1 8.91925 1 8C1 7.08075 1.18106 6.1705 1.53284 5.32122C1.88463 4.47194 2.40024 3.70026 3.05025 3.05025C3.70026 2.40024 4.47194 1.88463 5.32122 1.53284C6.1705 1.18106 7.08075 1 8 1M8 15C10.1474 15 11.0652 10.9843 11.0652 8C11.0652 5.01567 10.1474 1 8 1M8 15C5.85256 15 4.93478 10.9843 4.93478 8C4.93478 5.01567 5.85256 1 8 1M1.38889 5.66667H14.6111M1.38889 10.3333H14.6111" stroke="#ADB5BD" stroke-width="1.5" stroke-linecap="round" stroke-linejoin="round"/>
</svg>
