<svg width="16" height="12" viewBox="0 0 16 12" fill="none" xmlns="http://www.w3.org/2000/svg">
<path d="M11.2 10.4V12H0V10.4C0 10.4 0 7.20001 5.6 7.20001C11.2 7.20001 11.2 10.4 11.2 10.4ZM8.4 2.80002C8.4 2.24624 8.23578 1.70489 7.92812 1.24443C7.62045 0.783973 7.18315 0.425091 6.67151 0.213166C6.15988 0.00124151 5.59689 -0.0542077 5.05375 0.0538307C4.5106 0.161869 4.01169 0.428543 3.6201 0.820129C3.22851 1.21171 2.96184 1.71063 2.8538 2.25377C2.74576 2.79692 2.80121 3.3599 3.01314 3.87153C3.22506 4.38317 3.58395 4.82046 4.0444 5.12813C4.50486 5.4358 5.04621 5.60002 5.6 5.60002C6.34261 5.60002 7.0548 5.30502 7.5799 4.77992C8.105 4.25482 8.4 3.54263 8.4 2.80002ZM11.152 7.20001C11.6438 7.58061 12.0462 8.06436 12.3309 8.61721C12.6157 9.17007 12.7758 9.77861 12.8 10.4V12H16V10.4C16 10.4 16 7.49601 11.152 7.20001ZM10.4 2.94371e-05C9.84942 -0.00253147 9.31103 0.162054 8.856 0.472028C9.34195 1.15102 9.60324 1.96505 9.60324 2.80002C9.60324 3.63499 9.34195 4.44903 8.856 5.12802C9.31103 5.43799 9.84942 5.60258 10.4 5.60002C11.1426 5.60002 11.8548 5.30502 12.3799 4.77992C12.905 4.25482 13.2 3.54263 13.2 2.80002C13.2 2.05742 12.905 1.34523 12.3799 0.820129C11.8548 0.295028 11.1426 2.94371e-05 10.4 2.94371e-05Z" fill="#ADB5BD"/>
</svg>
