<svg width="29" height="19" viewBox="0 0 29 19" fill="none" xmlns="http://www.w3.org/2000/svg">
<path d="M19.7727 8.14286C21.9609 8.14286 23.7141 6.32429 23.7141 4.07143C23.7141 1.81857 21.9609 0 19.7727 0C17.5845 0 15.8182 1.81857 15.8182 4.07143C15.8182 6.32429 17.5845 8.14286 19.7727 8.14286ZM9.22727 8.14286C11.4155 8.14286 13.1686 6.32429 13.1686 4.07143C13.1686 1.81857 11.4155 0 9.22727 0C7.03909 0 5.27273 1.81857 5.27273 4.07143C5.27273 6.32429 7.03909 8.14286 9.22727 8.14286ZM9.22727 10.8571C6.15591 10.8571 0 12.445 0 15.6071V19H18.4545V15.6071C18.4545 12.445 12.2986 10.8571 9.22727 10.8571ZM19.7727 10.8571C19.3905 10.8571 18.9555 10.8843 18.4941 10.925C20.0232 12.065 21.0909 13.5986 21.0909 15.6071V19H29V15.6071C29 12.445 22.8441 10.8571 19.7727 10.8571Z" fill="#2B72DF"/>
</svg>
