<svg width="18" height="18" viewBox="0 0 18 18" fill="none" xmlns="http://www.w3.org/2000/svg">
<path d="M2.78125 -0.046875C3.18224 -0.046875 3.51242 0.259198 3.5498 0.650391L3.55273 0.724609V4.17578C4.73968 4.5117 5.61014 5.60116 5.61035 6.89551C5.61035 8.18997 4.7397 9.27906 3.55273 9.61523V17.1816C3.55273 17.6077 3.2073 17.9531 2.78125 17.9531C2.38047 17.9529 2.05104 17.6469 2.01367 17.2559L2.01074 17.1816V9.61523C0.823674 9.27921 -0.046875 8.19013 -0.046875 6.89551C-0.0466624 5.60099 0.823686 4.51155 2.01074 4.17578V0.724609C2.01074 0.29871 2.35541 -0.0466338 2.78125 -0.046875ZM8.95312 -0.046875C9.35411 -0.046875 9.68332 0.259198 9.7207 0.650391L9.72461 0.724609V10.3477C10.9113 10.6838 11.782 11.7732 11.7822 13.0674C11.782 14.3615 10.9112 15.4498 9.72461 15.7861V17.1816C9.72461 17.6077 9.37917 17.9531 8.95312 17.9531C8.55214 17.9531 8.22293 17.6471 8.18555 17.2559L8.18164 17.1816V15.7861C6.99502 15.4499 6.12519 14.3616 6.125 13.0674C6.1252 11.7731 6.99489 10.6836 8.18164 10.3477V0.724609C8.18164 0.298561 8.52708 -0.0468747 8.95312 -0.046875ZM15.125 -0.046875C15.5258 -0.0466483 15.8552 0.259343 15.8926 0.650391L15.8955 0.724609V1.08984C17.0825 1.4257 17.9528 2.51527 17.9531 3.80957C17.9531 5.10404 17.0825 6.19313 15.8955 6.5293V17.1816C15.8955 17.6075 15.5508 17.9529 15.125 17.9531C14.724 17.9531 14.3938 17.6471 14.3564 17.2559L14.3535 17.1816V6.5293C13.1665 6.19323 12.2959 5.10415 12.2959 3.80957C12.2962 2.51525 13.1667 1.42666 14.3535 1.09082V0.724609C14.3535 0.298561 14.699 -0.046875 15.125 -0.046875ZM8.95312 11.7822C8.2434 11.7825 7.66821 12.3577 7.66797 13.0674C7.66819 13.7771 8.24339 14.3533 8.95312 14.3535C9.66286 14.3533 10.239 13.7771 10.2393 13.0674C10.239 12.3577 9.66285 11.7825 8.95312 11.7822ZM2.78125 5.61035C2.07153 5.61059 1.49635 6.18579 1.49609 6.89551C1.49609 7.60544 2.07137 8.1814 2.78125 8.18164C3.49133 8.18164 4.06738 7.60559 4.06738 6.89551C4.06713 6.18565 3.49117 5.61035 2.78125 5.61035ZM15.124 2.52441C14.4144 2.5247 13.8392 3.09999 13.8389 3.80957C13.8389 4.51947 14.4142 5.09542 15.124 5.0957C15.8341 5.0957 16.4102 4.51965 16.4102 3.80957C16.4098 3.09981 15.8339 2.52441 15.124 2.52441Z" fill="#ADB5BD"/>
</svg>
