<svg width="15" height="15" viewBox="0 0 15 15" fill="none" xmlns="http://www.w3.org/2000/svg">
<path d="M7.15321 1.78809L2.98053 1.78809C2.66434 1.78809 2.3611 1.91369 2.13752 2.13727C1.91394 2.36085 1.78833 2.66409 1.78833 2.98028L1.78833 11.3257C1.78833 11.6418 1.91394 11.9451 2.13752 12.1687C2.3611 12.3922 2.66434 12.5179 2.98053 12.5179L11.3259 12.5179C11.6421 12.5179 11.9453 12.3922 12.1689 12.1687C12.3925 11.9451 12.5181 11.6418 12.5181 11.3257L12.5181 7.15297" stroke="#0A0A0A" stroke-width="1.1922" stroke-linecap="round" stroke-linejoin="round"/>
<path d="M10.9533 1.5647C11.1904 1.32756 11.512 1.19434 11.8474 1.19434C12.1828 1.19434 12.5044 1.32756 12.7416 1.5647C12.9787 1.80185 13.1119 2.12348 13.1119 2.45885C13.1119 2.79422 12.9787 3.11586 12.7416 3.353L7.36892 8.72623C7.22738 8.86765 7.05252 8.97117 6.86045 9.02725L5.14786 9.52798C5.09657 9.54294 5.04219 9.54383 4.99044 9.53057C4.93868 9.51731 4.89143 9.49038 4.85365 9.4526C4.81587 9.41482 4.78894 9.36758 4.77568 9.31582C4.76242 9.26406 4.76332 9.20969 4.77828 9.1584L5.279 7.44581C5.33535 7.25389 5.43907 7.07924 5.58063 6.93793L10.9533 1.5647Z" stroke="#0A0A0A" stroke-width="1.1922" stroke-linecap="round" stroke-linejoin="round"/>
</svg>
