<svg width="16" height="15" viewBox="0 0 16 15" fill="none" xmlns="http://www.w3.org/2000/svg">
<path d="M10.4 6.31579C10.4 5.88158 10.76 5.52632 11.2 5.52632C11.64 5.52632 12 5.88158 12 6.31579C12 6.75 11.64 7.10526 11.2 7.10526C10.76 7.10526 10.4 6.75 10.4 6.31579ZM4.8 5.52632H8.8V3.94737H4.8V5.52632ZM16 4.34211V9.84474L13.744 10.5868L12.4 15H8V13.4211H6.4V15H2C2 15 0 8.32105 0 5.92105C0 3.52105 1.968 1.57895 4.4 1.57895H8.4C9.128 0.623684 10.288 0 11.6 0C11.7977 4.15185e-05 11.9923 0.0483484 12.1665 0.140616C12.3407 0.232883 12.4891 0.366244 12.5983 0.528814C12.7076 0.691384 12.7745 0.878113 12.7929 1.07236C12.8114 1.26661 12.7808 1.46234 12.704 1.64211C12.592 1.91053 12.496 2.21842 12.448 2.55L14.264 4.34211H16ZM14.4 5.92105H13.6L10.8 3.15789C10.8 2.64474 10.872 2.13947 11.008 1.65C10.232 1.84737 9.6 2.41579 9.336 3.15789H4.4C2.856 3.15789 1.6 4.39737 1.6 5.92105C1.6 7.40526 2.576 11.1711 3.2 13.4211H4.8V11.8421H9.6V13.4211H11.2L12.448 9.35526L14.4 8.7079V5.92105Z" fill="#ADB5BD"/>
</svg>
