<svg width="19" height="15" viewBox="0 0 19 15" fill="none" xmlns="http://www.w3.org/2000/svg">
<g filter="url(#filter0_d_3744_14288)">
<path d="M7.5001 4.66555C7.7713 4.66555 8.03139 4.56018 8.22316 4.37262C8.41492 4.18507 8.52266 3.93069 8.52266 3.66544C8.52266 3.40019 8.41492 3.14581 8.22316 2.95826C8.03139 2.7707 7.7713 2.66533 7.5001 2.66533C7.22891 2.66533 6.96882 2.7707 6.77705 2.95826C6.58529 3.14581 6.47755 3.40019 6.47755 3.66544C6.47755 3.93069 6.58529 4.18507 6.77705 4.37262C6.96882 4.56018 7.22891 4.66555 7.5001 4.66555ZM8.10682 0.195064C7.93106 0.0683567 7.71845 0 7.5001 0C7.28176 0 7.06915 0.0683567 6.89339 0.195064L0.417228 4.86557C-0.376272 5.4383 0.0375205 6.67043 1.02394 6.67043H1.36479V11.499C0.960931 11.6635 0.615933 11.9414 0.373299 12.2975C0.130664 12.6536 0.00125577 13.0719 0.00139038 13.4998V14.4999C0.00139038 14.776 0.230442 15 0.512666 15H14.4875C14.6231 15 14.7532 14.9473 14.8491 14.8535C14.945 14.7598 14.9988 14.6326 14.9988 14.4999V13.4998C14.9988 13.072 14.8693 12.6538 14.6267 12.2979C14.3841 11.9419 14.0392 11.6642 13.6354 11.4996V6.67043H13.9756C14.9627 6.67043 15.3765 5.4383 14.5823 4.86557L8.10682 0.195064ZM2.38735 11.3329V6.67043H4.0916V11.3329H2.38735ZM12.6129 6.67043V11.3329H10.9086V6.67043H12.6129ZM9.88606 6.67043V11.3329H8.01138V6.67043H9.88606ZM6.98883 6.67043V11.3329H5.11415V6.67043H6.98883ZM1.02394 5.67032L7.5001 0.999818L13.9756 5.67032H1.02394ZM1.02394 13.4998C1.02394 12.8558 1.5584 12.333 2.21692 12.333H12.7833C13.4418 12.333 13.9763 12.8558 13.9763 13.4998V13.9999H1.02394V13.4998Z" fill="#A1A8B0"/>
</g>
<defs>
<filter id="filter0_d_3744_14288" x="-4" y="0" width="23" height="23" filterUnits="userSpaceOnUse" color-interpolation-filters="sRGB">
<feFlood flood-opacity="0" result="BackgroundImageFix"/>
<feColorMatrix in="SourceAlpha" type="matrix" values="0 0 0 0 0 0 0 0 0 0 0 0 0 0 0 0 0 0 127 0" result="hardAlpha"/>
<feOffset dy="4"/>
<feGaussianBlur stdDeviation="2"/>
<feComposite in2="hardAlpha" operator="out"/>
<feColorMatrix type="matrix" values="0 0 0 0 0 0 0 0 0 0 0 0 0 0 0 0 0 0 0.25 0"/>
<feBlend mode="normal" in2="BackgroundImageFix" result="effect1_dropShadow_3744_14288"/>
<feBlend mode="normal" in="SourceGraphic" in2="effect1_dropShadow_3744_14288" result="shape"/>
</filter>
</defs>
</svg>
