<svg width="18" height="18" viewBox="0 0 18 18" fill="none" xmlns="http://www.w3.org/2000/svg">
<circle cx="9" cy="9" r="9" fill="#F0F0F0"/>
<path d="M8.60876 9.00018H18.0001C18.0001 8.18786 17.8918 7.40093 17.69 6.65234H8.60876V9.00018Z" fill="#D80027"/>
<path d="M8.60876 4.30487H16.6791C16.1282 3.40586 15.4237 2.61122 14.6024 1.95703H8.60876V4.30487Z" fill="#D80027"/>
<path d="M9.00006 17.9995C11.1182 17.9995 13.065 17.2674 14.6024 16.043H3.39771C4.93509 17.2674 6.88194 17.9995 9.00006 17.9995Z" fill="#D80027"/>
<path d="M1.32098 13.6955H16.6791C17.1214 12.9738 17.4644 12.1849 17.69 11.3477H0.310059C0.535656 12.1849 0.878676 12.9738 1.32098 13.6955Z" fill="#D80027"/>
<path fill-rule="evenodd" clip-rule="evenodd" d="M4.98913 1.40548H4.16897C5.56471 0.515742 7.22208 0 9 0V9H0C0 8.61993 0.0238359 8.24544 0.0695742 7.87778L0.526535 7.54576L1.28939 8.1L0.99798 7.2032L1.76087 6.64896H0.81791L0.56243 5.86259C0.650848 5.62475 0.749215 5.39177 0.856758 5.16393L1.28939 5.47826L1.0575 4.76455C1.12704 4.63444 1.1996 4.50622 1.27526 4.38001L1.76087 4.02722H1.49808C1.98323 3.29681 2.57196 2.64129 3.24366 2.08178L2.99194 2.85652L3.75479 2.30228L4.51765 2.85652L4.22624 1.95971L4.98913 1.40548ZM3.75479 7.54576L4.51765 8.1L4.22624 7.2032L4.98913 6.64896H4.04617L3.75479 5.75216L3.46342 6.64896H2.52046L3.28335 7.2032L2.99194 8.1L3.75479 7.54576ZM4.22624 4.58146L4.51765 5.47826L3.75479 4.92402L2.99194 5.47826L3.28335 4.58146L2.52046 4.02722H3.46342L3.75479 3.13042L4.04617 4.02722H4.98913L4.22624 4.58146ZM6.98305 7.54576L7.74591 8.1L7.4545 7.2032L8.21739 6.64896H7.27443L6.98305 5.75216L6.69168 6.64896H5.74871L6.51161 7.2032L6.2202 8.1L6.98305 7.54576ZM7.4545 4.58146L7.74591 5.47826L6.98305 4.92402L6.2202 5.47826L6.51161 4.58146L5.74871 4.02722H6.69168L6.98305 3.13042L7.27443 4.02722H8.21739L7.4545 4.58146ZM7.74591 2.85652L7.4545 1.95971L8.21739 1.40548H7.27443L6.98305 0.508676L6.69168 1.40548H5.74871L6.51161 1.95971L6.2202 2.85652L6.98305 2.30228L7.74591 2.85652Z" fill="#0052B4"/>
</svg>
