<svg width="15" height="15" viewBox="0 0 15 15" fill="none" xmlns="http://www.w3.org/2000/svg">
<path d="M11.9221 5.96117C11.9221 8.93748 8.6203 12.0372 7.51156 12.9945C7.40827 13.0722 7.28254 13.1142 7.15331 13.1142C7.02407 13.1142 6.89834 13.0722 6.79505 12.9945C5.68631 12.0372 2.38452 8.93748 2.38452 5.96117C2.38452 4.69641 2.88695 3.48345 3.78127 2.58913C4.67559 1.69481 5.88855 1.19238 7.15331 1.19238C8.41807 1.19238 9.63102 1.69481 10.5253 2.58913C11.4197 3.48345 11.9221 4.69641 11.9221 5.96117Z" stroke="#717182" stroke-width="1.1922" stroke-linecap="round" stroke-linejoin="round"/>
<path d="M7.15328 7.74944C8.14093 7.74944 8.94158 6.94879 8.94158 5.96115C8.94158 4.9735 8.14093 4.17285 7.15328 4.17285C6.16564 4.17285 5.36499 4.9735 5.36499 5.96115C5.36499 6.94879 6.16564 7.74944 7.15328 7.74944Z" stroke="#717182" stroke-width="1.1922" stroke-linecap="round" stroke-linejoin="round"/>
</svg>
