<svg width="100" height="100" viewBox="0 0 100 100" fill="none" xmlns="http://www.w3.org/2000/svg">
<path d="M81.7275 18C84.4888 18.0001 86.7275 20.2387 86.7275 23V63.1963L86.9482 66.2764C86.9827 66.7564 87.0863 67.2292 87.2559 67.6797L92.6367 81.9775L92.7178 82.1582C93.127 83.0659 92.1435 83.971 91.2725 83.4883L78.165 77.3965C77.5171 77.0954 76.8121 76.9373 76.0977 76.9316L18.96 76.4756C16.2143 76.4536 14 74.2214 14 71.4756V23C14 20.2386 16.2386 18 19 18H81.7275ZM30 31C28.3431 31 27 32.3431 27 34V59C27 61.7614 29.2386 64 32 64H69C70.6569 64 72 62.6569 72 61V34C72 32.3431 70.6569 31 69 31H30Z" fill="#2B72DF"/>
</svg>
