<svg width="300" height="300" viewBox="0 0 300 300" fill="none" xmlns="http://www.w3.org/2000/svg">
<path d="M147.362 26.6191C112.73 27.0243 79.9827 42.3714 57.6236 68.6758C57.5552 68.793 57.4884 68.9108 57.4186 69.0274C57.3811 69.0881 57.3451 69.1492 57.3092 69.211C57.299 69.2287 57.296 69.2026 57.2857 69.211C57.251 69.2575 57.2064 69.261 57.1822 69.2363C57.1565 69.2843 57.1314 69.3325 57.1061 69.3808C57.0826 69.4258 57.0508 69.4441 57.0241 69.4433C57.0216 69.4486 57.0184 69.4535 57.0161 69.4588C56.923 69.6639 56.8628 69.8819 56.8071 70.0994C56.7648 70.2648 56.6752 70.3407 56.5865 70.369C56.5856 70.4122 56.5789 70.4618 56.5649 70.5135C56.5066 70.7276 56.4965 70.9513 56.4829 71.1717C56.4701 71.4284 56.4893 71.6847 56.5199 71.9393C56.6778 72.0495 56.8617 72.1243 57.0453 72.1756C57.1182 72.196 57.1925 72.2126 57.266 72.2303C57.6225 72.3023 57.9836 72.3533 58.3461 72.3846C58.3518 72.3833 58.3578 72.3812 58.3639 72.3808C58.3877 72.3755 58.4123 72.3706 58.4361 72.3653C58.5428 72.3396 58.6498 72.3172 58.7564 72.2911C58.7742 72.2869 58.7833 72.2843 58.7955 72.2813C58.8087 72.2764 58.8216 72.2707 58.8346 72.2658C58.948 72.2198 59.0647 72.1828 59.1803 72.1427C59.2463 72.12 59.2132 72.1295 59.276 72.1076C59.2805 72.106 59.2858 72.1058 59.2896 72.1056C59.2929 72.1055 59.2968 72.1049 59.2994 72.1056C65.6576 68.7494 72.8584 66.7861 79.8795 66.0685C88.0828 65.2302 97.2122 66.2489 104.963 69.2736C132.619 80.0622 144.18 115.541 137.088 144.518C133.499 159.185 124.453 162.468 114.473 173.277C108.585 179.653 108.952 196.894 105.866 205.803C103.177 212.209 101.997 218.288 97.1986 222.562C90.6052 228.435 86.2414 228.119 82.0272 229.666C73.6803 230.689 75.4936 229.535 71.9216 230.147C69.3788 230.583 67.6335 231.518 68.3756 234.174C75.9838 247.511 118.259 263.959 147.362 263.986C213.273 263.986 266.704 210.85 266.704 145.303C266.704 79.7559 213.273 26.6195 147.362 26.6191ZM55.8248 73.4648C55.8157 73.4662 55.8067 73.4686 55.7976 73.4686C55.7798 73.4718 55.7624 73.475 55.7449 73.4784C55.7462 73.4804 55.7487 73.4782 55.7487 73.4845C55.774 73.4784 55.7993 73.4713 55.8248 73.4648Z" fill="#2B72DF"/>
<path d="M196.911 85.7092C194.384 85.8209 192.157 88.1801 190.433 89.8284C185.938 94.1262 181.806 98.7531 178.364 103.947C163.238 126.778 162.011 157.35 175.034 181.373C178.94 188.577 183.96 195.466 190.14 200.887C191.97 202.492 194.264 205.269 196.925 205.449C197.305 205.475 197.692 205.449 198.087 205.358C201.026 204.679 202.426 201.321 200.874 198.77C199.445 196.42 196.564 194.649 194.581 192.772C192.087 190.41 189.877 187.651 187.821 184.906C172.076 163.88 170.82 134.848 183.788 112.19C188.119 104.622 194.18 99.472 200.093 93.299C202.931 90.336 201.218 85.519 196.911 85.7092ZM212.278 104.012C212.068 103.997 211.852 103.997 211.63 104.014C209.716 104.159 208.294 105.533 206.919 106.721C203.604 109.583 200.724 112.973 198.286 116.606C187.949 132.014 186.431 153.545 195.609 169.893C198.545 175.123 202.007 179.565 206.333 183.729C208.009 185.342 209.951 187.16 212.343 186.981C212.685 186.955 213.037 186.889 213.398 186.776C218.193 185.265 215.979 180.213 213.398 177.967C198.939 165.386 194.008 143.912 202.831 126.615C204.87 122.619 207.456 119.012 210.503 115.727C212.094 114.012 214.363 112.717 215.595 110.692C217.27 107.938 215.437 104.242 212.278 104.012ZM228.745 118.317C228.607 118.307 228.467 118.308 228.321 118.319C227.067 118.414 226.135 119.315 225.234 120.094C223.061 121.97 221.171 124.191 219.573 126.572C212.798 136.673 211.801 150.786 217.818 161.502C219.742 164.931 222.011 167.843 224.847 170.573C225.946 171.63 227.22 172.821 228.788 172.703C229.012 172.687 229.241 172.643 229.478 172.569C232.621 171.578 231.17 168.266 229.478 166.793C220 158.546 216.768 144.473 222.552 133.135C223.888 130.515 225.584 128.15 227.581 125.996C228.624 124.872 230.112 124.023 230.919 122.696C232.017 120.891 230.816 118.467 228.745 118.317Z" fill="#EDF3FC"/>
</svg>
