<svg width="14" height="15" viewBox="0 0 14 15" fill="none" xmlns="http://www.w3.org/2000/svg">
<path d="M5.99967 9.33333C7.47034 9.33333 8.66634 8.13733 8.66634 6.66667C8.66634 5.196 7.47034 4 5.99967 4C4.52901 4 3.33301 5.196 3.33301 6.66667C3.33301 8.13733 4.52901 9.33333 5.99967 9.33333ZM5.99967 5.33333C6.73501 5.33333 7.33301 5.93133 7.33301 6.66667C7.33301 7.402 6.73501 8 5.99967 8C5.26434 8 4.66634 7.402 4.66634 6.66667C4.66634 5.93133 5.26434 5.33333 5.99967 5.33333Z" fill="#ADB5BD"/>
<path d="M5.61274 14.5453C5.72565 14.6257 5.86081 14.6689 5.99941 14.6689C6.13801 14.6689 6.27317 14.6257 6.38607 14.5453C6.58874 14.4019 11.3521 10.9626 11.3327 6.66927C11.3327 3.7286 8.94007 1.33594 5.99941 1.33594C3.05874 1.33594 0.666074 3.7286 0.666074 6.66594C0.646741 10.9626 5.41007 14.4019 5.61274 14.5453ZM5.99941 2.66927C8.20541 2.66927 9.99941 4.46327 9.99941 6.6726C10.0134 9.63127 7.07407 12.2879 5.99941 13.1593C4.92541 12.2873 1.98541 9.62994 1.99941 6.66927C1.99941 4.46327 3.79341 2.66927 5.99941 2.66927Z" fill="#ADB5BD"/>
</svg>
