<svg width="23" height="26" viewBox="0 0 23 26" fill="none" xmlns="http://www.w3.org/2000/svg">
<path d="M23 21.0476V22.2857H0V21.0476L2.55556 18.5714V11.1429C2.55556 7.30476 5.14944 3.92476 8.94444 2.83524V2.47619C8.94444 1.81946 9.21369 1.18964 9.69295 0.725259C10.1722 0.260884 10.8222 0 11.5 0C12.1778 0 12.8278 0.260884 13.3071 0.725259C13.7863 1.18964 14.0556 1.81946 14.0556 2.47619V2.83524C17.8506 3.92476 20.4444 7.30476 20.4444 11.1429V18.5714L23 21.0476ZM14.0556 23.5238C14.0556 24.1805 13.7863 24.8104 13.3071 25.2747C12.8278 25.7391 12.1778 26 11.5 26C10.8222 26 10.1722 25.7391 9.69295 25.2747C9.21369 24.8104 8.94444 24.1805 8.94444 23.5238" fill="#0F3876"/>
</svg>
