<svg width="24" height="24" viewBox="0 0 24 24" fill="none" xmlns="http://www.w3.org/2000/svg">
<path fill-rule="evenodd" clip-rule="evenodd" d="M6.45833 5.16667C6.45833 3.79638 7.00268 2.48222 7.97161 1.51328C8.94055 0.544343 10.2547 0 11.625 0C12.9953 0 14.3094 0.544343 15.2784 1.51328C16.2473 2.48222 16.7917 3.79638 16.7917 5.16667C16.7917 6.53695 16.2473 7.85111 15.2784 8.82005C14.3094 9.78899 12.9953 10.3333 11.625 10.3333C10.2547 10.3333 8.94055 9.78899 7.97161 8.82005C7.00268 7.85111 6.45833 6.53695 6.45833 5.16667ZM6.45833 12.9167C4.74548 12.9167 3.10277 13.5971 1.8916 14.8083C0.68043 16.0194 0 17.6621 0 19.375C0 20.4027 0.408258 21.3883 1.13496 22.115C1.86166 22.8417 2.84729 23.25 3.875 23.25H19.375C20.4027 23.25 21.3883 22.8417 22.115 22.115C22.8417 21.3883 23.25 20.4027 23.25 19.375C23.25 17.6621 22.5696 16.0194 21.3584 14.8083C20.1472 13.5971 18.5045 12.9167 16.7917 12.9167H6.45833Z" fill="#2B72DF"/>
</svg>
