<svg width="15" height="18" viewBox="0 0 15 18" fill="none" xmlns="http://www.w3.org/2000/svg">
<path fill-rule="evenodd" clip-rule="evenodd" d="M8.40988 0.00631949L8.50589 0L8.54342 0.000893461L8.60189 0.00631949L8.64213 0.012787L8.69398 0.0247281L8.73916 0.0385125L8.78129 0.054401L8.83297 0.078306L8.92204 0.132404L8.93824 0.14424C8.96215 0.162327 8.98485 0.181878 9.00619 0.202757L9.06968 0.273702L9.12459 0.356089L9.15782 0.422799L9.18815 0.508227L9.20697 0.598321L9.21342 0.692257V6.46106H14.1662C14.7104 6.46106 15.0384 7.02963 14.7915 7.47799L14.7384 7.56048L7.19133 17.7136C6.80844 18.2287 5.99806 18.0027 5.91798 17.404L5.91158 17.3064V11.5376H0.958801C0.414554 11.5376 0.0866177 10.969 0.333478 10.5207L0.386588 10.4382L7.94268 0.274134L8.00519 0.203369L8.07809 0.140637L8.1623 0.086914L8.23048 0.054401L8.31779 0.0247281L8.40988 0.00631949ZM7.79835 2.82071L2.34746 10.1531H6.61911C6.97731 10.1531 7.27334 10.4135 7.32019 10.7514L7.32665 10.8454V15.1761L12.7756 7.84557H8.50589C8.14769 7.84557 7.85166 7.58514 7.80481 7.24725L7.79835 7.15332V2.82071Z" fill="#ADB5BD"/>
</svg>
