<svg width="14" height="12" viewBox="0 0 14 12" fill="none" xmlns="http://www.w3.org/2000/svg">
<path d="M7.17949 2.82353H1.4359C1.05507 2.82353 0.689848 2.97227 0.420565 3.23703C0.151282 3.50178 0 3.86087 0 4.23529V7.05882C0 7.43325 0.151282 7.79233 0.420565 8.05709C0.689848 8.32185 1.05507 8.47059 1.4359 8.47059H2.15385V11.2941C2.15385 11.4813 2.22949 11.6609 2.36413 11.7933C2.49877 11.9256 2.68138 12 2.87179 12H4.30769C4.4981 12 4.68072 11.9256 4.81536 11.7933C4.95 11.6609 5.02564 11.4813 5.02564 11.2941V8.47059H7.17949L10.7692 11.2941V0L7.17949 2.82353ZM14 5.64706C14 6.85412 13.3108 7.94824 12.2051 8.47059V2.82353C13.3036 3.35294 14 4.44706 14 5.64706Z" fill="#ADB5BD"/>
</svg>
