<svg width="15" height="15" viewBox="0 0 15 15" fill="none" xmlns="http://www.w3.org/2000/svg">
<path d="M4 9H8V10H4V9ZM4 6.5H10V7.5H4V6.5ZM4 11.5H6.5V12.5H4V11.5Z" fill="#ADB5BD"/>
<path d="M11.5 2.5H10V2C10 1.73478 9.89464 1.48043 9.70711 1.29289C9.51957 1.10536 9.26522 1 9 1H5C4.73478 1 4.48043 1.10536 4.29289 1.29289C4.10536 1.48043 4 1.73478 4 2V2.5H2.5C2.23478 2.5 1.98043 2.60536 1.79289 2.79289C1.60536 2.98043 1.5 3.23478 1.5 3.5V14C1.5 14.2652 1.60536 14.5196 1.79289 14.7071C1.98043 14.8946 2.23478 15 2.5 15H11.5C11.7652 15 12.0196 14.8946 12.2071 14.7071C12.3946 14.5196 12.5 14.2652 12.5 14V3.5C12.5 3.23478 12.3946 2.98043 12.2071 2.79289C12.0196 2.60536 11.7652 2.5 11.5 2.5ZM5 2H9V4H5V2ZM11.5 14H2.5V3.5H4V5H10V3.5H11.5V14Z" fill="#ADB5BD"/>
</svg>
