<svg width="28" height="32" viewBox="0 0 28 32" fill="none" xmlns="http://www.w3.org/2000/svg">
<path d="M28 25.7576V27.2727H0V25.7576L3.11111 22.7273V13.6364C3.11111 8.93939 6.26889 4.80303 10.8889 3.4697V3.0303C10.8889 2.22662 11.2167 1.45585 11.8001 0.887555C12.3836 0.319263 13.1749 0 14 0C14.8251 0 15.6164 0.319263 16.1999 0.887555C16.7833 1.45585 17.1111 2.22662 17.1111 3.0303V3.4697C21.7311 4.80303 24.8889 8.93939 24.8889 13.6364V22.7273L28 25.7576ZM17.1111 28.7879C17.1111 29.5916 16.7833 30.3623 16.1999 30.9306C15.6164 31.4989 14.8251 31.8182 14 31.8182C13.1749 31.8182 12.3836 31.4989 11.8001 30.9306C11.2167 30.3623 10.8889 29.5916 10.8889 28.7879" fill="#EFF1F3"/>
</svg>
