<svg width="14" height="14" viewBox="0 0 14 14" fill="none" xmlns="http://www.w3.org/2000/svg">
<path d="M7 0C10.866 0 14 3.13401 14 7C14 10.866 10.866 14 7 14C3.13401 14 0 10.866 0 7C0 3.13401 3.13401 0 7 0ZM7 1.07715C3.72878 1.07715 1.07715 3.72878 1.07715 7C1.07715 10.2712 3.72878 12.9229 7 12.9229C10.2712 12.9229 12.9229 10.2712 12.9229 7C12.9229 3.72878 10.2712 1.07715 7 1.07715ZM7 2.87207C9.27994 2.87207 11.1279 4.72006 11.1279 7C11.1279 9.27994 9.27994 11.1279 7 11.1279C6.72011 11.1279 6.48996 10.9147 6.46387 10.6416L6.46191 10.5898L6.46191 3.41016C6.46197 3.11282 6.70265 2.87207 7 2.87207Z" fill="white"/>
</svg>
