<svg width="25" height="21" viewBox="0 0 25 21" fill="none" xmlns="http://www.w3.org/2000/svg">
<path d="M23.75 3.70588C24.0815 3.70588 24.3995 3.83603 24.6339 4.06769C24.8683 4.29935 25 4.61356 25 4.94118C25 5.2688 24.8683 5.583 24.6339 5.81466C24.3995 6.04632 24.0815 6.17647 23.75 6.17647V18.5294C24.0815 18.5294 24.3995 18.6596 24.6339 18.8912C24.8683 19.1229 25 19.4371 25 19.7647C25 20.0923 24.8683 20.4065 24.6339 20.6382C24.3995 20.8699 24.0815 21 23.75 21H1.25C0.918479 21 0.600537 20.8699 0.366116 20.6382C0.131696 20.4065 0 20.0923 0 19.7647C0 19.4371 0.131696 19.1229 0.366116 18.8912C0.600537 18.6596 0.918479 18.5294 1.25 18.5294V6.17647C0.918479 6.17647 0.600537 6.04632 0.366116 5.81466C0.131696 5.583 0 5.2688 0 4.94118C0 4.61356 0.131696 4.29935 0.366116 4.06769C0.600537 3.83603 0.918479 3.70588 1.25 3.70588H23.75ZM6.25 8.64706C5.91848 8.64706 5.60054 8.77721 5.36612 9.00887C5.1317 9.24053 5 9.55473 5 9.88235V18.5294H7.5V9.88235C7.5 9.55473 7.3683 9.24053 7.13388 9.00887C6.89946 8.77721 6.58152 8.64706 6.25 8.64706ZM12.5 8.64706C12.1685 8.64706 11.8505 8.77721 11.6161 9.00887C11.3817 9.24053 11.25 9.55473 11.25 9.88235V18.5294H13.75V9.88235C13.75 9.55473 13.6183 9.24053 13.3839 9.00887C13.1495 8.77721 12.8315 8.64706 12.5 8.64706ZM18.75 8.64706C18.4185 8.64706 18.1005 8.77721 17.8661 9.00887C17.6317 9.24053 17.5 9.55473 17.5 9.88235V18.5294H20V9.88235C20 9.55473 19.8683 9.24053 19.6339 9.00887C19.3995 8.77721 19.0815 8.64706 18.75 8.64706ZM20 0C20.3315 0 20.6495 0.130147 20.8839 0.361809C21.1183 0.593472 21.25 0.907674 21.25 1.23529C21.25 1.56291 21.1183 1.87712 20.8839 2.10878C20.6495 2.34044 20.3315 2.47059 20 2.47059H5C4.66848 2.47059 4.35054 2.34044 4.11612 2.10878C3.8817 1.87712 3.75 1.56291 3.75 1.23529C3.75 0.907674 3.8817 0.593472 4.11612 0.361809C4.35054 0.130147 4.66848 0 5 0H20Z" fill="#2B72DF"/>
</svg>
