<svg width="28" height="24" viewBox="0 0 28 24" fill="none" xmlns="http://www.w3.org/2000/svg">
<path d="M26.6 4.15059C26.9713 4.15059 27.3274 4.29635 27.59 4.55581C27.8525 4.81528 28 5.16718 28 5.53412C28 5.90105 27.8525 6.25296 27.59 6.51242C27.3274 6.77188 26.9713 6.91765 26.6 6.91765V20.7529C26.9713 20.7529 27.3274 20.8987 27.59 21.1582C27.8525 21.4176 28 21.7695 28 22.1365C28 22.5034 27.8525 22.8553 27.59 23.1148C27.3274 23.3742 26.9713 23.52 26.6 23.52H1.4C1.0287 23.52 0.672601 23.3742 0.41005 23.1148C0.1475 22.8553 0 22.5034 0 22.1365C0 21.7695 0.1475 21.4176 0.41005 21.1582C0.672601 20.8987 1.0287 20.7529 1.4 20.7529V6.91765C1.0287 6.91765 0.672601 6.77188 0.41005 6.51242C0.1475 6.25296 0 5.90105 0 5.53412C0 5.16718 0.1475 4.81528 0.41005 4.55581C0.672601 4.29635 1.0287 4.15059 1.4 4.15059H26.6ZM7 9.68471C6.6287 9.68471 6.2726 9.83047 6.01005 10.0899C5.7475 10.3494 5.6 10.7013 5.6 11.0682V20.7529H8.4V11.0682C8.4 10.7013 8.2525 10.3494 7.98995 10.0899C7.7274 9.83047 7.3713 9.68471 7 9.68471ZM14 9.68471C13.6287 9.68471 13.2726 9.83047 13.0101 10.0899C12.7475 10.3494 12.6 10.7013 12.6 11.0682V20.7529H15.4V11.0682C15.4 10.7013 15.2525 10.3494 14.9899 10.0899C14.7274 9.83047 14.3713 9.68471 14 9.68471ZM21 9.68471C20.6287 9.68471 20.2726 9.83047 20.01 10.0899C19.7475 10.3494 19.6 10.7013 19.6 11.0682V20.7529H22.4V11.0682C22.4 10.7013 22.2525 10.3494 21.99 10.0899C21.7274 9.83047 21.3713 9.68471 21 9.68471ZM22.4 0C22.7713 0 23.1274 0.145765 23.3899 0.405227C23.6525 0.664689 23.8 1.01659 23.8 1.38353C23.8 1.75046 23.6525 2.10237 23.3899 2.36183C23.1274 2.62129 22.7713 2.76706 22.4 2.76706H5.6C5.2287 2.76706 4.8726 2.62129 4.61005 2.36183C4.3475 2.10237 4.2 1.75046 4.2 1.38353C4.2 1.01659 4.3475 0.664689 4.61005 0.405227C4.8726 0.145765 5.2287 0 5.6 0H22.4Z" fill="#EFF1F3"/>
</svg>
