<svg width="15" height="17" viewBox="0 0 15 17" fill="none" xmlns="http://www.w3.org/2000/svg">
<path d="M8.15088 0.303097C7.83336 -0.101032 7.16664 -0.101032 6.84912 0.303097L0.181929 8.81107C0.0841206 8.93632 0.0228926 9.08718 0.00527567 9.24635C-0.0123413 9.40551 0.0143671 9.56652 0.0823338 9.71089C0.150301 9.85526 0.25677 9.97713 0.389519 10.0625C0.522267 10.1479 0.675912 10.1933 0.832813 10.1936H4.16641V16.1492C4.16641 16.3748 4.25421 16.5913 4.4105 16.7508C4.5668 16.9104 4.77877 17 4.9998 17H10.0002C10.2212 17 10.4332 16.9104 10.5895 16.7508C10.7458 16.5913 10.8336 16.3748 10.8336 16.1492V10.1936H14.1672C14.3241 10.1933 14.4777 10.1479 14.6105 10.0625C14.7432 9.97713 14.8497 9.85526 14.9177 9.71089C14.9856 9.56652 15.0123 9.40551 14.9947 9.24635C14.9771 9.08718 14.9159 8.93632 14.8181 8.81107L8.15088 0.303097ZM10.0002 8.49202H9.1668V15.2984H5.8332V8.49202H2.56712L7.5 2.19697L12.4329 8.49202H10.0002Z" fill="black"/>
</svg>
